<svg id="Livello_1" data-name="Livello 1" xmlns="http://www.w3.org/2000/svg" xmlns:xlink="http://www.w3.org/1999/xlink" viewBox="0 0 60 60"><defs><style>.cls-1,.cls-6,.cls-7,.cls-8{fill:none;}.cls-2{clip-path:url(#clip-path);}.cls-3{fill:url(#Sfumatura_senza_nome_7);}.cls-4{fill:url(#Sfumatura_senza_nome);}.cls-5{fill:url(#Sfumatura_senza_nome_2);}.cls-6{stroke:#f3bf05;}.cls-6,.cls-7,.cls-8{stroke-linecap:round;stroke-linejoin:round;stroke-width:1.76px;}.cls-7{stroke:url(#Sfumatura_senza_nome_3);}.cls-8{stroke:#ec008c;}.cls-9{fill:url(#Sfumatura_senza_nome_5);}.cls-10{fill:url(#Sfumatura_senza_nome_4);}</style><clipPath id="clip-path"><path class="cls-1" d="M30,0h0A30,30,0,0,0,0,30H0A30,30,0,0,0,30,60h0A30,30,0,0,0,60,30h0A30,30,0,0,0,30,0Z"/></clipPath><linearGradient id="Sfumatura_senza_nome_7" x1="30" y1="62" x2="30" y2="2" gradientTransform="matrix(1, 0, 0, -1, 0, 62)" gradientUnits="userSpaceOnUse"><stop offset="0" stop-color="#43cbf7"/><stop offset="1" stop-color="#5433ff"/></linearGradient><linearGradient id="Sfumatura_senza_nome" x1="49.19" y1="20.51" x2="49.19" y2="32.64" gradientTransform="matrix(1, 0, 0, -1, 0, 62)" gradientUnits="userSpaceOnUse"><stop offset="0.3" stop-color="#89245d"/><stop offset="0.7" stop-color="#b3125d"/></linearGradient><linearGradient id="Sfumatura_senza_nome_2" x1="10.94" y1="20.51" x2="10.94" y2="32.63" gradientTransform="matrix(1, 0, 0, -1, 0, 62)" gradientUnits="userSpaceOnUse"><stop offset="0.3" stop-color="#3ca70a"/><stop offset="0.7" stop-color="#53c61d"/></linearGradient><linearGradient id="Sfumatura_senza_nome_3" x1="27.49" y1="55.58" x2="27.49" y2="45.53" gradientTransform="matrix(1, 0, 0, -1, 0, 62)" gradientUnits="userSpaceOnUse"><stop offset="0" stop-color="#f3bf05"/><stop offset="1" stop-color="#ec008c"/></linearGradient><linearGradient id="Sfumatura_senza_nome_5" x1="56.68" y1="42.78" x2="52.66" y2="28.79" gradientUnits="userSpaceOnUse"><stop offset="0.3" stop-color="#ec008c"/><stop offset="0.7" stop-color="#fc6767"/></linearGradient><linearGradient id="Sfumatura_senza_nome_4" x1="7.41" y1="19.91" x2="2.61" y2="36.65" gradientTransform="matrix(1, 0, 0, -1, 0, 62)" gradientUnits="userSpaceOnUse"><stop offset="0.3" stop-color="gold"/><stop offset="0.7" stop-color="#99f305"/></linearGradient></defs><g class="cls-2"><path class="cls-3" d="M30,0h0A30,30,0,0,0,0,30H0A30,30,0,0,0,30,60h0A30,30,0,0,0,60,30h0A30,30,0,0,0,30,0Z"/><g class="cls-2"><path class="cls-4" d="M50.2,29.49c-.67-.07-1-.13-1-.13-2.74,0-5,2.72-5,6.07s2.23,6.06,5,6.06,5-2.71,5-6.06C54.16,32.5,52.46,30.06,50.2,29.49Z"/><path class="cls-5" d="M10.94,29.37c-2.74,0-5,2.71-5,6.06,0,2.92,1.7,5.37,4,5.94.67.06,1,.12,1,.12,2.74,0,5-2.71,5-6.06S13.69,29.37,10.94,29.37Z"/><path class="cls-6" d="M4.19,33.87S20.5,31.61,33,24.46c11.45-6.54,12.9-10.89,10-14.19-1.63-1.84-7.66-2.85-12.21,6.2,0,0,.75-10.94-6.59-10s-4.32,12,1.65,18.63c4.94,5.52,7.72,8.78,29.87,6.71"/><path class="cls-7" d="M30.78,16.47s.75-10.94-6.59-10"/><path class="cls-8" d="M4.19,33.87S20.5,31.61,33,24.46c11.45-6.54,12.9-10.89,10-14.19-1.63-1.84-7.66-2.85-12.21,6.2"/><path class="cls-8" d="M5.16,36.62s13.63-1.12,21.4-4.28"/><path class="cls-8" d="M5.11,39.79S18.16,37,28.82,37.59"/><path class="cls-6" d="M34.82,35.83S41.88,37,55,35"/><path class="cls-6" d="M33.35,39s5.51,2.86,22.39-1.26"/><path class="cls-9" d="M50.21,29.49c2.26.57,4,3,4,5.94,0,3.35-2.23,6.06-5,6.06a79,79,0,0,0,10.8.34V29.59A65.4,65.4,0,0,1,50.21,29.49Z"/><path class="cls-10" d="M6,35.43c0-3.35,2.22-6.07,5-6.07A80.28,80.28,0,0,0,0,29V41.28a66.18,66.18,0,0,1,9.92.09C7.67,40.8,6,38.36,6,35.43Z"/></g></g></svg>